<svg width="29" height="32" viewBox="0 0 29 32" fill="none" xmlns="http://www.w3.org/2000/svg">
<g opacity="1" clip-path="url(#clip0_4018_166)">
<path d="M5.06884 32L4.3167 32C3.18096 31.7881 2.2107 31.055 1.90483 29.8969L1.27868 27.5269C1.20848 27.2613 1.39024 27.0088 1.60335 26.955C1.86347 26.8894 2.11857 27.0319 2.19002 27.3025L2.78985 29.585C3.0625 30.6213 4.0804 31.2494 5.13089 31.005L8.10184 30.3144C9.11597 30.0788 9.87939 28.85 9.49643 27.8213L6.53488 19.8669L2.61999 20.985C1.51623 21.3 0.90198 22.3869 1.20096 23.4863L1.67104 25.325C1.7356 25.5788 1.52375 25.8156 1.32569 25.8613C1.09879 25.9138 0.828646 25.7931 0.763461 25.5394L0.267675 23.6112C-0.123438 22.0906 0.787278 20.5494 2.29595 20.1081L6.62576 18.8413C7.18297 18.6781 7.64617 18.285 8.17705 18.0481L8.1852 13.7506C8.18708 12.7056 9.04577 11.87 10.0743 11.8675L11.3385 11.8644C12.3972 11.8619 13.2477 12.7 13.2578 13.7531L13.2728 15.3519L14.124 14.8919L14.1309 10.1031C14.1327 8.97001 15.0453 8.06376 16.1623 8.01938C16.4907 8.00626 16.7784 8.00688 17.1087 8.01438C18.2752 8.04064 19.2084 8.96126 19.2091 10.1469L19.2135 19.9988C19.5162 19.9656 19.7575 19.92 20.0678 19.8425L20.074 5.58689C20.074 4.41564 21.0405 3.50001 22.1687 3.50001L23.06 3.50001C24.2327 3.50001 25.1522 4.45564 25.1516 5.62377L25.1516 7.00439C25.151 7.29002 24.9053 7.46689 24.6571 7.45751C24.427 7.44876 24.2177 7.25126 24.2171 6.97689L24.2133 5.62189C24.2114 4.97751 23.7169 4.43751 23.06 4.43751L22.1756 4.43751C21.5137 4.43751 21.0086 4.96626 21.0086 5.64001L21.0098 19.4538C21.305 19.3213 21.5219 19.2119 21.7469 19.0625C22.6025 18.4944 23.4085 17.9094 24.2146 17.2744L24.2158 8.91876C24.2158 8.62189 24.4828 8.44564 24.7128 8.46126C24.9429 8.47689 25.1516 8.65876 25.1516 8.94439L25.1554 16.605C25.7489 16.2456 26.2999 16.0069 26.9473 16.0569C27.7991 16.1225 28.4823 16.6831 28.8126 17.4588C29.1793 18.3194 29.012 19.3213 28.2542 19.9456L23.1177 24.1763C22.4157 24.6994 21.7093 25.0994 20.8456 25.3106L10.4936 27.8413C10.8114 29.49 9.78977 30.9313 8.22469 31.2863L5.06821 32.0013L5.06884 32ZM15.1187 19.9931L18.2714 20.0313L18.2683 10.0944C18.2683 9.45126 17.7136 8.95064 17.1131 8.95064L16.2206 8.95063C15.5894 8.95063 15.0685 9.48063 15.0692 10.125L15.0704 14.3981C15.8426 14.1088 16.5521 14.2794 17.0742 14.7506C17.6158 15.2394 17.7794 15.9581 17.5957 16.6769C17.3657 17.5788 16.9439 18.3944 16.2412 19.0106C15.8696 19.3269 15.528 19.5675 15.1193 19.9919L15.1187 19.9931ZM12.3264 15.855L12.3264 13.7544C12.3025 13.2138 11.8857 12.8075 11.3392 12.7994L10.0812 12.8006C9.54594 12.82 9.15107 13.215 9.11911 13.7506L9.12663 17.5431L12.3264 15.855ZM25.905 17.2469L22.1311 19.8881C21.132 20.5875 19.9806 20.9644 18.7578 20.965L15.3493 20.9669C14.8648 20.9669 14.4737 20.6806 14.3302 20.2856C14.1754 19.8581 14.2913 19.4038 14.6455 19.1119L15.5067 18.4006C16.1215 17.8931 16.4838 17.2106 16.6794 16.4469C16.7803 16.0519 16.7132 15.6688 16.4023 15.4156C16.0914 15.1625 15.7173 15.1188 15.3362 15.3219L7.40799 19.5213L10.2003 26.945L20.5823 24.4106C21.31 24.2031 21.9356 23.9256 22.5153 23.4506L27.5296 19.3425C27.7947 19.1256 27.9702 18.7806 28.0292 18.4656C28.1301 17.9244 27.7966 17.4188 27.4074 17.1763C26.9273 16.8769 26.3751 16.9181 25.905 17.2469Z" fill="#C1C7D2" stroke="#C1C7D2" stroke-width="0.7" stroke-linecap="round" stroke-linejoin="round"/>
<path d="M17.9804 1.06998e-05C18.6198 0.191886 19.1087 0.650011 19.1093 1.37689L19.113 5.18564C19.113 5.78751 18.7752 6.29626 18.2769 6.52314C17.7786 6.75001 17.108 6.70751 16.6968 6.28751C16.327 5.91001 16.2568 5.41126 16.2023 4.85313L12.5017 8.39938C12.0586 8.82438 11.403 8.92626 10.8583 8.65063L9.29135 7.85813L2.43873 14.7381C1.99622 15.1825 1.38699 15.2637 0.851719 15.0113C0.415478 14.8056 0.116502 14.4319 0.0343935 14.03C-0.0646383 13.545 0.0387809 13.0594 0.396047 12.7006L7.96696 5.09125C8.44519 4.61063 9.11836 4.51563 9.70879 4.81813L11.2463 5.60438L14.0524 2.90626C13.5397 2.86251 13.1097 2.77688 12.7919 2.41751C12.4403 2.02001 12.382 1.45626 12.5657 0.916882C12.7123 0.485633 13.1223 0.195008 13.5917 0.000633088L17.9792 0.000635699L17.9804 1.06998e-05ZM8.86326 6.95751C9.02309 6.79751 9.26691 6.78188 9.41734 6.85938L11.2682 7.81063C11.4512 7.90501 11.7095 7.86063 11.8662 7.71001L16.3615 3.39563C16.4987 3.26376 16.73 3.24126 16.8848 3.30564C17.0246 3.36376 17.1606 3.56439 17.1612 3.74001L17.1637 5.19064C17.1637 5.50626 17.4051 5.73251 17.6896 5.71939C17.9547 5.70689 18.1722 5.49001 18.1716 5.18751L18.1704 1.37501C18.1704 1.12814 17.9692 0.938136 17.7241 0.938136L13.9114 0.940008C13.6017 0.940008 13.3999 1.20688 13.4118 1.46688C13.4231 1.70313 13.6155 1.94188 13.9038 1.94313L15.2314 1.95001C15.4345 1.95126 15.6325 2.09188 15.687 2.26501C15.7378 2.42376 15.6896 2.64063 15.5529 2.77251L11.6637 6.50563C11.5271 6.63688 11.2745 6.67813 11.1115 6.59438L9.20987 5.61938C9.02622 5.52563 8.81124 5.57625 8.66081 5.72688L1.09616 13.3275C0.87867 13.5463 0.904995 13.8494 1.06796 14.0344C1.214 14.2 1.54557 14.3056 1.74488 14.105L8.86326 6.95751Z" fill="#C1C7D2" stroke="#C1C7D2" stroke-width="0.7" stroke-linecap="round" stroke-linejoin="round"/>
<path d="M7.68943 28.05C7.68943 29.0663 6.86333 29.8906 5.84356 29.8906C4.82378 29.8906 3.99768 29.0669 3.99768 28.05C3.99768 27.0331 4.82378 26.2094 5.84356 26.2094C6.86333 26.2094 7.68943 27.0331 7.68943 28.05ZM6.75177 28.0494C6.75177 27.55 6.34561 27.1444 5.84418 27.1444C5.34276 27.1444 4.9366 27.5494 4.9366 28.0494C4.9366 28.5494 5.34276 28.9544 5.84418 28.9544C6.34561 28.9544 6.75177 28.5494 6.75177 28.0494Z" fill="#C1C7D2"/>
</g>
<defs>
<clipPath id="clip0_4018_166">
<rect width="29" height="32" fill="white"/>
</clipPath>
</defs>
</svg>
